# Blender v3.1.2 OBJ File: 'Axis4.blend'
# www.blender.org
o Cube
v 0.030000 0.056500 0.023000
v 0.030000 -0.013000 0.023000
v 0.030000 0.056500 0.033000
v 0.030000 -0.013000 0.033000
v -0.030000 0.056500 0.023000
v -0.030000 -0.013000 0.023000
v -0.030000 0.056500 0.033000
v -0.030000 -0.013000 0.033000
vn 0.0000 1.0000 0.0000
vn 0.0000 0.0000 1.0000
vn -1.0000 0.0000 0.0000
vn 0.0000 -1.0000 0.0000
vn 1.0000 0.0000 0.0000
vn 0.0000 0.0000 -1.0000
s off
f 5//1 3//1 1//1
f 3//2 8//2 4//2
f 7//3 6//3 8//3
f 2//4 8//4 6//4
f 1//5 4//5 2//5
f 5//6 2//6 6//6
f 5//1 7//1 3//1
f 3//2 7//2 8//2
f 7//3 5//3 6//3
f 2//4 4//4 8//4
f 1//5 3//5 4//5
f 5//6 1//6 2//6
o Cube.001
v -0.010000 -0.009000 0.023000
v -0.010000 0.009000 0.023000
v 0.010000 -0.009000 0.023000
v 0.010000 0.009000 0.023000
v -0.010000 -0.005105 -0.015000
v -0.010000 -0.009000 -0.011105
v -0.010000 0.009000 -0.011105
v -0.010000 0.005105 -0.015000
v 0.010000 -0.009000 -0.011105
v 0.010000 -0.005105 -0.015000
v 0.010000 0.005105 -0.015000
v 0.010000 0.009000 -0.011105
vn 0.0000 0.0000 -1.0000
vn 0.0000 1.0000 0.0000
vn 0.0000 0.0000 1.0000
vn -1.0000 0.0000 0.0000
vn 1.0000 0.0000 0.0000
vn 0.0000 -0.7071 -0.7071
vn 0.0000 0.7071 -0.7071
vn 0.0000 -1.0000 0.0000
s off
f 16//7 18//7 13//7
f 15//8 12//8 20//8
f 12//9 9//9 11//9
f 16//10 13//10 14//10
f 20//11 12//11 11//11
f 14//12 18//12 17//12
f 20//13 16//13 15//13
f 17//14 9//14 14//14
f 16//7 19//7 18//7
f 15//8 10//8 12//8
f 12//9 10//9 9//9
f 14//10 9//10 10//10
f 10//10 15//10 14//10
f 15//10 16//10 14//10
f 11//11 17//11 20//11
f 17//11 18//11 20//11
f 18//11 19//11 20//11
f 14//12 13//12 18//12
f 20//13 19//13 16//13
f 17//14 11//14 9//14
o Cube.003
v -0.035000 0.100630 0.093500
v -0.035000 0.056500 0.023000
v -0.035000 0.100630 0.023000
v 0.035000 0.100630 0.093500
v 0.035000 0.056500 0.023000
v 0.035000 0.100630 0.023000
v 0.012700 0.056500 0.023000
v 0.012700 0.100630 0.023000
v 0.012700 0.056500 0.093500
v 0.012700 0.100630 0.093500
v -0.012700 0.056500 0.023000
v -0.012700 0.100630 0.093500
v -0.012700 0.100630 0.023000
v -0.012700 0.056500 0.093500
v -0.035000 0.061887 0.023000
v 0.035000 0.061887 0.023000
v 0.012700 0.061887 0.093500
v 0.012700 0.061887 0.023000
v -0.012700 0.061887 0.023000
v -0.012700 0.061887 0.093500
v -0.035000 0.094667 0.093500
v -0.035000 0.094667 0.023000
v 0.035000 0.094667 0.023000
v 0.035000 0.094667 0.093500
v 0.012700 0.094667 0.093500
v 0.012700 0.094667 0.023000
v -0.012700 0.094667 0.023000
v -0.012700 0.094667 0.093500
v 0.035000 0.094667 0.036746
v 0.035000 0.061887 0.036746
v 0.012700 0.094667 0.036746
v 0.012700 0.061887 0.036746
v -0.012700 0.094667 0.036746
v -0.012700 0.061887 0.036746
v -0.035000 0.061887 0.036746
v -0.035000 0.094667 0.036746
v -0.035000 0.056500 0.036711
v 0.035000 0.056500 0.036723
v -0.024546 0.056500 0.093500
v -0.035000 0.056500 0.083046
v 0.035000 0.056500 0.083046
v 0.024546 0.056500 0.093500
v -0.035000 0.061887 0.083046
v -0.024546 0.061887 0.093500
v 0.024546 0.061887 0.093500
v 0.035000 0.061887 0.083046
vn -1.0000 0.0000 0.0000
vn 0.0000 0.0000 -1.0000
vn 1.0000 0.0000 0.0000
vn 0.0000 0.0000 1.0000
vn 0.0000 1.0000 0.0000
vn 0.0000 -1.0000 0.0000
vn 0.7071 0.0000 0.7071
vn -0.7071 0.0000 0.7071
s off
f 23//15 42//15 56//15
f 28//16 43//16 46//16
f 24//17 44//17 49//17
f 32//18 41//18 48//18
f 54//19 63//19 40//19
f 23//19 32//19 33//19
f 28//19 24//19 26//19
f 27//20 34//20 31//20
f 24//18 45//18 44//18
f 33//16 46//16 47//16
f 23//16 47//16 42//16
f 40//18 59//18 34//18
f 33//19 30//19 28//19
f 30//18 48//18 45//18
f 37//18 34//18 29//18
f 35//16 31//16 22//16
f 39//16 27//16 31//16
f 61//20 62//20 29//20
f 50//17 61//17 58//17
f 36//17 58//17 25//17
f 38//16 25//16 27//16
f 57//20 34//20 60//20
f 45//18 40//18 37//18
f 42//16 39//16 35//16
f 47//16 38//16 39//16
f 45//20 49//20 44//20
f 48//15 54//15 40//15
f 46//16 36//16 38//16
f 49//18 52//18 50//18
f 53//18 55//18 54//18
f 66//19 50//19 52//19
f 41//20 53//20 48//20
f 37//17 51//17 45//17
f 43//17 50//17 36//17
f 42//15 55//15 56//15
f 57//15 35//15 22//15
f 65//18 29//18 62//18
f 62//21 66//21 65//21
f 64//22 60//22 59//22
f 60//15 55//15 57//15
f 56//15 41//15 21//15
f 21//15 23//15 56//15
f 28//16 26//16 43//16
f 49//17 43//17 26//17
f 26//17 24//17 49//17
f 32//18 21//18 41//18
f 55//19 63//19 54//19
f 63//19 64//19 40//19
f 23//19 21//19 32//19
f 28//19 30//19 24//19
f 27//20 29//20 34//20
f 24//18 30//18 45//18
f 33//16 28//16 46//16
f 23//16 33//16 47//16
f 40//18 64//18 59//18
f 33//19 32//19 30//19
f 30//18 32//18 48//18
f 37//18 40//18 34//18
f 35//16 39//16 31//16
f 39//16 38//16 27//16
f 29//20 27//20 58//20
f 27//20 25//20 58//20
f 58//20 61//20 29//20
f 50//17 66//17 61//17
f 36//17 50//17 58//17
f 38//16 36//16 25//16
f 57//20 22//20 31//20
f 31//20 34//20 57//20
f 34//20 59//20 60//20
f 45//18 48//18 40//18
f 42//16 47//16 39//16
f 47//16 46//16 38//16
f 45//20 51//20 49//20
f 48//15 53//15 54//15
f 46//16 43//16 36//16
f 49//18 51//18 52//18
f 53//18 56//18 55//18
f 52//19 37//19 66//19
f 37//19 65//19 66//19
f 41//20 56//20 53//20
f 37//17 52//17 51//17
f 43//17 49//17 50//17
f 42//15 35//15 55//15
f 57//15 55//15 35//15
f 65//18 37//18 29//18
f 62//21 61//21 66//21
f 64//22 63//22 60//22
f 60//15 63//15 55//15
o Cube.004
v -0.030000 0.100630 0.117355
v -0.030000 0.150630 0.117355
v -0.030000 0.100630 0.027355
v -0.030000 0.150630 0.027355
v 0.030000 0.100630 0.117355
v 0.030000 0.150630 0.117355
v 0.030000 0.100630 0.027355
v 0.030000 0.150630 0.027355
vn -1.0000 0.0000 0.0000
vn 0.0000 0.0000 -1.0000
vn 1.0000 0.0000 0.0000
vn 0.0000 0.0000 1.0000
vn 0.0000 -1.0000 0.0000
vn 0.0000 1.0000 0.0000
s off
f 68//23 69//23 67//23
f 70//24 73//24 69//24
f 74//25 71//25 73//25
f 72//26 67//26 71//26
f 73//27 67//27 69//27
f 70//28 72//28 74//28
f 68//23 70//23 69//23
f 70//24 74//24 73//24
f 74//25 72//25 71//25
f 72//26 68//26 67//26
f 73//27 71//27 67//27
f 70//28 68//28 72//28
o Cube.002_Cube.005
v -0.035000 -0.057130 0.093500
v -0.035000 -0.013000 0.023000
v -0.035000 -0.057130 0.023000
v 0.035000 -0.057130 0.093500
v 0.035000 -0.013000 0.023000
v 0.035000 -0.057130 0.023000
v 0.012700 -0.013000 0.023000
v 0.012700 -0.057130 0.023000
v 0.012700 -0.013000 0.093500
v 0.012700 -0.057130 0.093500
v -0.012700 -0.013000 0.023000
v -0.012700 -0.057130 0.093500
v -0.012700 -0.057130 0.023000
v -0.012700 -0.013000 0.093500
v -0.035000 -0.018387 0.023000
v 0.035000 -0.018387 0.023000
v 0.012700 -0.018387 0.093500
v 0.012700 -0.018387 0.023000
v -0.012700 -0.018387 0.023000
v -0.012700 -0.018387 0.093500
v -0.035000 -0.051167 0.093500
v -0.035000 -0.051167 0.023000
v 0.035000 -0.051167 0.023000
v 0.035000 -0.051167 0.093500
v 0.012700 -0.051167 0.093500
v 0.012700 -0.051167 0.023000
v -0.012700 -0.051167 0.023000
v -0.012700 -0.051167 0.093500
v 0.035000 -0.051167 0.036746
v 0.035000 -0.018387 0.036746
v 0.012700 -0.051167 0.036746
v 0.012700 -0.018387 0.036746
v -0.012700 -0.051167 0.036746
v -0.012700 -0.018387 0.036746
v -0.035000 -0.018387 0.036746
v -0.035000 -0.051167 0.036746
v -0.035000 -0.013000 0.036711
v 0.035000 -0.013000 0.036723
v -0.024546 -0.013000 0.093500
v -0.035000 -0.013000 0.083046
v 0.035000 -0.013000 0.083046
v 0.024546 -0.013000 0.093500
v -0.035000 -0.018387 0.083046
v -0.024546 -0.018387 0.093500
v 0.024546 -0.018387 0.093500
v 0.035000 -0.018387 0.083046
vn -1.0000 0.0000 0.0000
vn 0.0000 0.0000 -1.0000
vn 1.0000 0.0000 0.0000
vn 0.0000 0.0000 1.0000
vn 0.0000 -1.0000 0.0000
vn 0.0000 1.0000 0.0000
vn 0.7071 0.0000 0.7071
vn -0.7071 0.0000 0.7071
s off
f 110//29 77//29 75//29
f 97//30 82//30 100//30
f 103//31 78//31 80//31
f 95//32 86//32 102//32
f 94//33 117//33 108//33
f 86//33 77//33 87//33
f 78//33 82//33 80//33
f 88//34 81//34 85//34
f 99//32 78//32 98//32
f 100//30 87//30 101//30
f 101//30 77//30 96//30
f 113//32 94//32 88//32
f 84//33 87//33 82//33
f 102//32 84//32 99//32
f 88//32 91//32 83//32
f 85//30 89//30 76//30
f 81//30 93//30 85//30
f 83//34 115//34 112//34
f 115//31 104//31 112//31
f 112//31 90//31 79//31
f 79//30 92//30 81//30
f 88//34 85//34 111//34
f 94//32 99//32 91//32
f 93//30 96//30 89//30
f 92//30 101//30 93//30
f 103//34 99//34 98//34
f 108//29 102//29 94//29
f 90//30 100//30 92//30
f 106//32 103//32 104//32
f 109//32 107//32 108//32
f 106//33 104//33 120//33
f 107//34 95//34 102//34
f 105//31 91//31 99//31
f 104//31 97//31 90//31
f 109//29 96//29 110//29
f 111//29 89//29 109//29
f 83//32 119//32 116//32
f 120//35 116//35 119//35
f 114//36 118//36 113//36
f 114//29 109//29 117//29
f 75//29 95//29 110//29
f 110//29 96//29 77//29
f 97//30 80//30 82//30
f 80//31 97//31 103//31
f 103//31 98//31 78//31
f 95//32 75//32 86//32
f 118//33 117//33 94//33
f 117//33 109//33 108//33
f 86//33 75//33 77//33
f 78//33 84//33 82//33
f 88//34 83//34 81//34
f 99//32 84//32 78//32
f 100//30 82//30 87//30
f 101//30 87//30 77//30
f 113//32 118//32 94//32
f 84//33 86//33 87//33
f 102//32 86//32 84//32
f 88//32 94//32 91//32
f 85//30 93//30 89//30
f 81//30 92//30 93//30
f 79//34 81//34 112//34
f 81//34 83//34 112//34
f 83//34 116//34 115//34
f 115//31 120//31 104//31
f 112//31 104//31 90//31
f 79//30 90//30 92//30
f 85//34 76//34 111//34
f 111//34 114//34 88//34
f 114//34 113//34 88//34
f 94//32 102//32 99//32
f 93//30 101//30 96//30
f 92//30 100//30 101//30
f 103//34 105//34 99//34
f 108//29 107//29 102//29
f 90//30 97//30 100//30
f 106//32 105//32 103//32
f 109//32 110//32 107//32
f 119//33 91//33 120//33
f 91//33 106//33 120//33
f 107//34 110//34 95//34
f 105//31 106//31 91//31
f 104//31 103//31 97//31
f 109//29 89//29 96//29
f 111//29 76//29 89//29
f 83//32 91//32 119//32
f 120//35 115//35 116//35
f 114//36 117//36 118//36
f 114//29 111//29 109//29
o Cylinder
v 0.000000 0.036642 0.061000
v 0.000000 0.056500 0.061000
v 0.001951 0.036642 0.061192
v 0.001951 0.056500 0.061192
v 0.003827 0.036642 0.061761
v 0.003827 0.056500 0.061761
v 0.005556 0.036642 0.062685
v 0.005556 0.056500 0.062685
v 0.007071 0.036642 0.063929
v 0.007071 0.056500 0.063929
v 0.008315 0.036642 0.065444
v 0.008315 0.056500 0.065444
v 0.009239 0.036642 0.067173
v 0.009239 0.056500 0.067173
v 0.009808 0.036642 0.069049
v 0.009808 0.056500 0.069049
v 0.010000 0.036642 0.071000
v 0.010000 0.056500 0.071000
v 0.009808 0.036642 0.072951
v 0.009808 0.056500 0.072951
v 0.009239 0.036642 0.074827
v 0.009239 0.056500 0.074827
v 0.008315 0.036642 0.076556
v 0.008315 0.056500 0.076556
v 0.007071 0.036642 0.078071
v 0.007071 0.056500 0.078071
v 0.005556 0.036642 0.079315
v 0.005556 0.056500 0.079315
v 0.003827 0.036642 0.080239
v 0.003827 0.056500 0.080239
v 0.001951 0.036642 0.080808
v 0.001951 0.056500 0.080808
v -0.000000 0.036642 0.081000
v -0.000000 0.056500 0.081000
v -0.001951 0.036642 0.080808
v -0.001951 0.056500 0.080808
v -0.003827 0.036642 0.080239
v -0.003827 0.056500 0.080239
v -0.005556 0.036642 0.079315
v -0.005556 0.056500 0.079315
v -0.007071 0.036642 0.078071
v -0.007071 0.056500 0.078071
v -0.008315 0.036642 0.076556
v -0.008315 0.056500 0.076556
v -0.009239 0.036642 0.074827
v -0.009239 0.056500 0.074827
v -0.009808 0.036642 0.072951
v -0.009808 0.056500 0.072951
v -0.010000 0.036642 0.071000
v -0.010000 0.056500 0.071000
v -0.009808 0.036642 0.069049
v -0.009808 0.056500 0.069049
v -0.009239 0.036642 0.067173
v -0.009239 0.056500 0.067173
v -0.008315 0.036642 0.065444
v -0.008315 0.056500 0.065444
v -0.007071 0.036642 0.063929
v -0.007071 0.056500 0.063929
v -0.005556 0.036642 0.062685
v -0.005556 0.056500 0.062685
v -0.003827 0.036642 0.061761
v -0.003827 0.056500 0.061761
v -0.001951 0.036642 0.061192
v -0.001951 0.056500 0.061192
vn 0.0980 0.0000 -0.9952
vn 0.2903 0.0000 -0.9569
vn 0.4714 0.0000 -0.8819
vn 0.6344 0.0000 -0.7730
vn 0.7730 0.0000 -0.6344
vn 0.8819 0.0000 -0.4714
vn 0.9569 0.0000 -0.2903
vn 0.9952 0.0000 -0.0980
vn 0.9952 0.0000 0.0980
vn 0.9569 0.0000 0.2903
vn 0.8819 0.0000 0.4714
vn 0.7730 0.0000 0.6344
vn 0.6344 0.0000 0.7730
vn 0.4714 0.0000 0.8819
vn 0.2903 0.0000 0.9569
vn 0.0980 0.0000 0.9952
vn -0.0980 0.0000 0.9952
vn -0.2903 0.0000 0.9569
vn -0.4714 0.0000 0.8819
vn -0.6344 0.0000 0.7730
vn -0.7730 0.0000 0.6344
vn -0.8819 0.0000 0.4714
vn -0.9569 0.0000 0.2903
vn -0.9952 0.0000 0.0980
vn -0.9952 0.0000 -0.0980
vn -0.9569 0.0000 -0.2903
vn -0.8819 0.0000 -0.4714
vn -0.7730 0.0000 -0.6344
vn -0.6344 0.0000 -0.7730
vn -0.4714 0.0000 -0.8819
vn 0.0000 1.0000 -0.0000
vn -0.2903 0.0000 -0.9569
vn -0.0980 0.0000 -0.9952
vn 0.0000 -1.0000 0.0000
s off
f 122//37 123//37 121//37
f 124//38 125//38 123//38
f 126//39 127//39 125//39
f 128//40 129//40 127//40
f 130//41 131//41 129//41
f 132//42 133//42 131//42
f 134//43 135//43 133//43
f 136//44 137//44 135//44
f 138//45 139//45 137//45
f 140//46 141//46 139//46
f 142//47 143//47 141//47
f 144//48 145//48 143//48
f 146//49 147//49 145//49
f 148//50 149//50 147//50
f 150//51 151//51 149//51
f 152//52 153//52 151//52
f 154//53 155//53 153//53
f 156//54 157//54 155//54
f 158//55 159//55 157//55
f 160//56 161//56 159//56
f 162//57 163//57 161//57
f 164//58 165//58 163//58
f 166//59 167//59 165//59
f 168//60 169//60 167//60
f 170//61 171//61 169//61
f 172//62 173//62 171//62
f 174//63 175//63 173//63
f 176//64 177//64 175//64
f 178//65 179//65 177//65
f 180//66 181//66 179//66
f 158//67 142//67 126//67
f 182//68 183//68 181//68
f 184//69 121//69 183//69
f 135//70 151//70 167//70
f 122//37 124//37 123//37
f 124//38 126//38 125//38
f 126//39 128//39 127//39
f 128//40 130//40 129//40
f 130//41 132//41 131//41
f 132//42 134//42 133//42
f 134//43 136//43 135//43
f 136//44 138//44 137//44
f 138//45 140//45 139//45
f 140//46 142//46 141//46
f 142//47 144//47 143//47
f 144//48 146//48 145//48
f 146//49 148//49 147//49
f 148//50 150//50 149//50
f 150//51 152//51 151//51
f 152//52 154//52 153//52
f 154//53 156//53 155//53
f 156//54 158//54 157//54
f 158//55 160//55 159//55
f 160//56 162//56 161//56
f 162//57 164//57 163//57
f 164//58 166//58 165//58
f 166//59 168//59 167//59
f 168//60 170//60 169//60
f 170//61 172//61 171//61
f 172//62 174//62 173//62
f 174//63 176//63 175//63
f 176//64 178//64 177//64
f 178//65 180//65 179//65
f 180//66 182//66 181//66
f 126//67 124//67 122//67
f 122//67 184//67 182//67
f 182//67 180//67 174//67
f 180//67 178//67 174//67
f 178//67 176//67 174//67
f 174//67 172//67 170//67
f 170//67 168//67 174//67
f 168//67 166//67 174//67
f 166//67 164//67 158//67
f 164//67 162//67 158//67
f 162//67 160//67 158//67
f 158//67 156//67 154//67
f 154//67 152//67 150//67
f 150//67 148//67 146//67
f 146//67 144//67 142//67
f 142//67 140//67 134//67
f 140//67 138//67 134//67
f 138//67 136//67 134//67
f 134//67 132//67 126//67
f 132//67 130//67 126//67
f 130//67 128//67 126//67
f 126//67 122//67 174//67
f 122//67 182//67 174//67
f 158//67 154//67 150//67
f 150//67 146//67 158//67
f 146//67 142//67 158//67
f 174//67 166//67 158//67
f 142//67 134//67 126//67
f 126//67 174//67 158//67
f 182//68 184//68 183//68
f 184//69 122//69 121//69
f 183//70 121//70 123//70
f 123//70 125//70 127//70
f 127//70 129//70 131//70
f 131//70 133//70 127//70
f 133//70 135//70 127//70
f 135//70 137//70 139//70
f 139//70 141//70 143//70
f 143//70 145//70 151//70
f 145//70 147//70 151//70
f 147//70 149//70 151//70
f 151//70 153//70 155//70
f 155//70 157//70 151//70
f 157//70 159//70 151//70
f 159//70 161//70 163//70
f 163//70 165//70 167//70
f 167//70 169//70 171//70
f 171//70 173//70 175//70
f 175//70 177//70 179//70
f 179//70 181//70 183//70
f 183//70 123//70 127//70
f 135//70 139//70 151//70
f 139//70 143//70 151//70
f 159//70 163//70 167//70
f 167//70 171//70 175//70
f 175//70 179//70 167//70
f 179//70 183//70 167//70
f 183//70 127//70 135//70
f 151//70 159//70 167//70
f 183//70 135//70 167//70
o Cylinder.001
v 0.000000 -0.013000 0.061000
v 0.000000 0.006858 0.061000
v 0.001951 -0.013000 0.061192
v 0.001951 0.006858 0.061192
v 0.003827 -0.013000 0.061761
v 0.003827 0.006858 0.061761
v 0.005556 -0.013000 0.062685
v 0.005556 0.006858 0.062685
v 0.007071 -0.013000 0.063929
v 0.007071 0.006858 0.063929
v 0.008315 -0.013000 0.065444
v 0.008315 0.006858 0.065444
v 0.009239 -0.013000 0.067173
v 0.009239 0.006858 0.067173
v 0.009808 -0.013000 0.069049
v 0.009808 0.006858 0.069049
v 0.010000 -0.013000 0.071000
v 0.010000 0.006858 0.071000
v 0.009808 -0.013000 0.072951
v 0.009808 0.006858 0.072951
v 0.009239 -0.013000 0.074827
v 0.009239 0.006858 0.074827
v 0.008315 -0.013000 0.076556
v 0.008315 0.006858 0.076556
v 0.007071 -0.013000 0.078071
v 0.007071 0.006858 0.078071
v 0.005556 -0.013000 0.079315
v 0.005556 0.006858 0.079315
v 0.003827 -0.013000 0.080239
v 0.003827 0.006858 0.080239
v 0.001951 -0.013000 0.080808
v 0.001951 0.006858 0.080808
v -0.000000 -0.013000 0.081000
v -0.000000 0.006858 0.081000
v -0.001951 -0.013000 0.080808
v -0.001951 0.006858 0.080808
v -0.003827 -0.013000 0.080239
v -0.003827 0.006858 0.080239
v -0.005556 -0.013000 0.079315
v -0.005556 0.006858 0.079315
v -0.007071 -0.013000 0.078071
v -0.007071 0.006858 0.078071
v -0.008315 -0.013000 0.076556
v -0.008315 0.006858 0.076556
v -0.009239 -0.013000 0.074827
v -0.009239 0.006858 0.074827
v -0.009808 -0.013000 0.072951
v -0.009808 0.006858 0.072951
v -0.010000 -0.013000 0.071000
v -0.010000 0.006858 0.071000
v -0.009808 -0.013000 0.069049
v -0.009808 0.006858 0.069049
v -0.009239 -0.013000 0.067173
v -0.009239 0.006858 0.067173
v -0.008315 -0.013000 0.065444
v -0.008315 0.006858 0.065444
v -0.007071 -0.013000 0.063929
v -0.007071 0.006858 0.063929
v -0.005556 -0.013000 0.062685
v -0.005556 0.006858 0.062685
v -0.003827 -0.013000 0.061761
v -0.003827 0.006858 0.061761
v -0.001951 -0.013000 0.061192
v -0.001951 0.006858 0.061192
vn 0.0980 0.0000 -0.9952
vn 0.2903 0.0000 -0.9569
vn 0.4714 0.0000 -0.8819
vn 0.6344 0.0000 -0.7730
vn 0.7730 0.0000 -0.6344
vn 0.8819 0.0000 -0.4714
vn 0.9569 0.0000 -0.2903
vn 0.9952 0.0000 -0.0980
vn 0.9952 0.0000 0.0980
vn 0.9569 0.0000 0.2903
vn 0.8819 0.0000 0.4714
vn 0.7730 0.0000 0.6344
vn 0.6344 0.0000 0.7730
vn 0.4714 0.0000 0.8819
vn 0.2903 0.0000 0.9569
vn 0.0980 0.0000 0.9952
vn -0.0980 0.0000 0.9952
vn -0.2903 0.0000 0.9569
vn -0.4714 0.0000 0.8819
vn -0.6344 0.0000 0.7730
vn -0.7730 0.0000 0.6344
vn -0.8819 0.0000 0.4714
vn -0.9569 0.0000 0.2903
vn -0.9952 0.0000 0.0980
vn -0.9952 0.0000 -0.0980
vn -0.9569 0.0000 -0.2903
vn -0.8819 0.0000 -0.4714
vn -0.7730 0.0000 -0.6344
vn -0.6344 0.0000 -0.7730
vn -0.4714 0.0000 -0.8819
vn 0.0000 1.0000 0.0000
vn -0.2903 0.0000 -0.9569
vn -0.0980 0.0000 -0.9952
vn 0.0000 -1.0000 0.0000
s off
f 186//71 187//71 185//71
f 188//72 189//72 187//72
f 190//73 191//73 189//73
f 192//74 193//74 191//74
f 194//75 195//75 193//75
f 196//76 197//76 195//76
f 198//77 199//77 197//77
f 200//78 201//78 199//78
f 202//79 203//79 201//79
f 204//80 205//80 203//80
f 206//81 207//81 205//81
f 208//82 209//82 207//82
f 210//83 211//83 209//83
f 212//84 213//84 211//84
f 214//85 215//85 213//85
f 216//86 217//86 215//86
f 218//87 219//87 217//87
f 220//88 221//88 219//88
f 222//89 223//89 221//89
f 224//90 225//90 223//90
f 226//91 227//91 225//91
f 228//92 229//92 227//92
f 230//93 231//93 229//93
f 232//94 233//94 231//94
f 234//95 235//95 233//95
f 236//96 237//96 235//96
f 238//97 239//97 237//97
f 240//98 241//98 239//98
f 242//99 243//99 241//99
f 244//100 245//100 243//100
f 222//101 206//101 190//101
f 246//102 247//102 245//102
f 248//103 185//103 247//103
f 199//104 215//104 231//104
f 186//71 188//71 187//71
f 188//72 190//72 189//72
f 190//73 192//73 191//73
f 192//74 194//74 193//74
f 194//75 196//75 195//75
f 196//76 198//76 197//76
f 198//77 200//77 199//77
f 200//78 202//78 201//78
f 202//79 204//79 203//79
f 204//80 206//80 205//80
f 206//81 208//81 207//81
f 208//82 210//82 209//82
f 210//83 212//83 211//83
f 212//84 214//84 213//84
f 214//85 216//85 215//85
f 216//86 218//86 217//86
f 218//87 220//87 219//87
f 220//88 222//88 221//88
f 222//89 224//89 223//89
f 224//90 226//90 225//90
f 226//91 228//91 227//91
f 228//92 230//92 229//92
f 230//93 232//93 231//93
f 232//94 234//94 233//94
f 234//95 236//95 235//95
f 236//96 238//96 237//96
f 238//97 240//97 239//97
f 240//98 242//98 241//98
f 242//99 244//99 243//99
f 244//100 246//100 245//100
f 190//101 188//101 186//101
f 186//101 248//101 246//101
f 246//101 244//101 238//101
f 244//101 242//101 238//101
f 242//101 240//101 238//101
f 238//101 236//101 234//101
f 234//101 232//101 238//101
f 232//101 230//101 238//101
f 230//101 228//101 222//101
f 228//101 226//101 222//101
f 226//101 224//101 222//101
f 222//101 220//101 218//101
f 218//101 216//101 214//101
f 214//101 212//101 210//101
f 210//101 208//101 206//101
f 206//101 204//101 198//101
f 204//101 202//101 198//101
f 202//101 200//101 198//101
f 198//101 196//101 190//101
f 196//101 194//101 190//101
f 194//101 192//101 190//101
f 190//101 186//101 238//101
f 186//101 246//101 238//101
f 222//101 218//101 214//101
f 214//101 210//101 222//101
f 210//101 206//101 222//101
f 238//101 230//101 222//101
f 206//101 198//101 190//101
f 190//101 238//101 222//101
f 246//102 248//102 247//102
f 248//103 186//103 185//103
f 247//104 185//104 187//104
f 187//104 189//104 191//104
f 191//104 193//104 195//104
f 195//104 197//104 191//104
f 197//104 199//104 191//104
f 199//104 201//104 203//104
f 203//104 205//104 207//104
f 207//104 209//104 215//104
f 209//104 211//104 215//104
f 211//104 213//104 215//104
f 215//104 217//104 219//104
f 219//104 221//104 215//104
f 221//104 223//104 215//104
f 223//104 225//104 227//104
f 227//104 229//104 231//104
f 231//104 233//104 235//104
f 235//104 237//104 239//104
f 239//104 241//104 243//104
f 243//104 245//104 247//104
f 247//104 187//104 191//104
f 199//104 203//104 215//104
f 203//104 207//104 215//104
f 223//104 227//104 231//104
f 231//104 235//104 239//104
f 239//104 243//104 231//104
f 243//104 247//104 231//104
f 247//104 191//104 199//104
f 215//104 223//104 231//104
f 247//104 199//104 231//104
