# Blender v3.1.2 OBJ File: ''
# www.blender.org
o Cube
v -0.101600 0.009530 0.080561
v -0.080561 0.009530 0.101600
v -0.080561 0.000000 0.101600
v -0.101600 0.000000 0.080561
v -0.080561 0.009530 -0.101600
v -0.101600 0.009530 -0.080561
v -0.101600 0.000000 -0.080561
v -0.080561 0.000000 -0.101600
v 0.080561 0.009530 0.101600
v 0.101600 0.009530 0.080561
v 0.101600 0.000000 0.080561
v 0.080561 0.000000 0.101600
v 0.101600 0.009530 -0.080561
v 0.080561 0.009530 -0.101600
v 0.080561 0.000000 -0.101600
v 0.101600 0.000000 -0.080561
vn 0.0000 -1.0000 0.0000
vn 1.0000 0.0000 0.0000
vn 0.0000 0.0000 -1.0000
vn 0.0000 1.0000 0.0000
vn -1.0000 0.0000 0.0000
vn -0.7071 0.0000 0.7071
vn 0.7071 0.0000 -0.7071
vn -0.7071 0.0000 -0.7071
vn 0.7071 0.0000 0.7071
vn 0.0000 0.0000 1.0000
s off
f 11//1 12//1 3//1 4//1 7//1 8//1 15//1 16//1
f 16//2 13//2 10//2 11//2
f 8//3 5//3 14//3 15//3
f 1//4 2//4 9//4 10//4 13//4 14//4 5//4 6//4
f 4//5 1//5 6//5 7//5
f 1//6 4//6 3//6 2//6
f 15//7 14//7 13//7 16//7
f 5//8 8//8 7//8 6//8
f 9//9 12//9 11//9 10//9
f 12//10 9//10 2//10 3//10
o Cylinder
v 0.000000 0.009530 0.055350
v 0.000000 0.052030 0.055350
v -0.010798 0.009530 0.054286
v -0.010798 0.052030 0.054286
v -0.021182 0.009530 0.051137
v -0.021182 0.052030 0.051137
v -0.030751 0.009530 0.046022
v -0.030751 0.052030 0.046022
v -0.039138 0.009530 0.039138
v -0.039138 0.052030 0.039138
v -0.046022 0.009530 0.030751
v -0.046022 0.052030 0.030751
v -0.051137 0.009530 0.021182
v -0.051137 0.052030 0.021182
v -0.054286 0.009530 0.010798
v -0.054286 0.052030 0.010798
v -0.055350 0.009530 -0.000000
v -0.055350 0.052030 -0.000000
v -0.054286 0.009530 -0.010798
v -0.054286 0.052030 -0.010798
v -0.051137 0.009530 -0.021182
v -0.051137 0.052030 -0.021182
v -0.046022 0.009530 -0.030751
v -0.046022 0.052030 -0.030751
v -0.039138 0.009530 -0.039138
v -0.039138 0.052030 -0.039138
v -0.030751 0.009530 -0.046022
v -0.030751 0.052030 -0.046022
v -0.021182 0.009530 -0.051137
v -0.021182 0.052030 -0.051137
v -0.010798 0.009530 -0.054286
v -0.010798 0.052030 -0.054286
v 0.000000 0.009530 -0.055350
v 0.000000 0.052030 -0.055350
v 0.010798 0.009530 -0.054286
v 0.010798 0.052030 -0.054286
v 0.021182 0.009530 -0.051137
v 0.021182 0.052030 -0.051137
v 0.030751 0.009530 -0.046022
v 0.030751 0.052030 -0.046022
v 0.039138 0.009530 -0.039138
v 0.039138 0.052030 -0.039138
v 0.046022 0.009530 -0.030751
v 0.046022 0.052030 -0.030751
v 0.051137 0.009530 -0.021182
v 0.051137 0.052030 -0.021182
v 0.054286 0.009530 -0.010798
v 0.054286 0.052030 -0.010798
v 0.055350 0.009530 0.000000
v 0.055350 0.052030 0.000000
v 0.054286 0.009530 0.010798
v 0.054286 0.052030 0.010798
v 0.051137 0.009530 0.021182
v 0.051137 0.052030 0.021182
v 0.046022 0.009530 0.030751
v 0.046022 0.052030 0.030751
v 0.039138 0.009530 0.039138
v 0.039138 0.052030 0.039138
v 0.030751 0.009530 0.046022
v 0.030751 0.052030 0.046022
v 0.021182 0.009530 0.051137
v 0.021182 0.052030 0.051137
v 0.010798 0.009530 0.054286
v 0.010798 0.052030 0.054286
vn -0.0980 0.0000 0.9952
vn -0.2903 0.0000 0.9569
vn -0.4714 0.0000 0.8819
vn -0.6344 0.0000 0.7730
vn -0.7730 0.0000 0.6344
vn -0.8819 0.0000 0.4714
vn -0.9569 0.0000 0.2903
vn -0.9952 0.0000 0.0980
vn -0.9952 0.0000 -0.0980
vn -0.9569 0.0000 -0.2903
vn -0.8819 0.0000 -0.4714
vn -0.7730 0.0000 -0.6344
vn -0.6344 0.0000 -0.7730
vn -0.4714 0.0000 -0.8819
vn -0.2903 0.0000 -0.9569
vn -0.0980 0.0000 -0.9952
vn 0.0980 0.0000 -0.9952
vn 0.2903 0.0000 -0.9569
vn 0.4714 0.0000 -0.8819
vn 0.6344 0.0000 -0.7730
vn 0.7730 0.0000 -0.6344
vn 0.8819 0.0000 -0.4714
vn 0.9569 0.0000 -0.2903
vn 0.9952 0.0000 -0.0980
vn 0.9952 0.0000 0.0980
vn 0.9569 0.0000 0.2903
vn 0.8819 0.0000 0.4714
vn 0.7730 0.0000 0.6344
vn 0.6344 0.0000 0.7730
vn 0.4714 0.0000 0.8819
vn 0.0000 1.0000 0.0000
vn 0.2903 0.0000 0.9569
vn 0.0980 0.0000 0.9952
vn 0.0000 -1.0000 -0.0000
s off
f 17//11 18//11 20//11 19//11
f 19//12 20//12 22//12 21//12
f 21//13 22//13 24//13 23//13
f 23//14 24//14 26//14 25//14
f 25//15 26//15 28//15 27//15
f 27//16 28//16 30//16 29//16
f 29//17 30//17 32//17 31//17
f 31//18 32//18 34//18 33//18
f 33//19 34//19 36//19 35//19
f 35//20 36//20 38//20 37//20
f 37//21 38//21 40//21 39//21
f 39//22 40//22 42//22 41//22
f 41//23 42//23 44//23 43//23
f 43//24 44//24 46//24 45//24
f 45//25 46//25 48//25 47//25
f 47//26 48//26 50//26 49//26
f 49//27 50//27 52//27 51//27
f 51//28 52//28 54//28 53//28
f 53//29 54//29 56//29 55//29
f 55//30 56//30 58//30 57//30
f 57//31 58//31 60//31 59//31
f 59//32 60//32 62//32 61//32
f 61//33 62//33 64//33 63//33
f 63//34 64//34 66//34 65//34
f 65//35 66//35 68//35 67//35
f 67//36 68//36 70//36 69//36
f 69//37 70//37 72//37 71//37
f 71//38 72//38 74//38 73//38
f 73//39 74//39 76//39 75//39
f 75//40 76//40 78//40 77//40
f 20//41 18//41 80//41 78//41 76//41 74//41 72//41 70//41 68//41 66//41 64//41 62//41 60//41 58//41 56//41 54//41 52//41 50//41 48//41 46//41 44//41 42//41 40//41 38//41 36//41 34//41 32//41 30//41 28//41 26//41 24//41 22//41
f 77//42 78//42 80//42 79//42
f 79//43 80//43 18//43 17//43
f 17//44 19//44 21//44 23//44 25//44 27//44 29//44 31//44 33//44 35//44 37//44 39//44 41//44 43//44 45//44 47//44 49//44 51//44 53//44 55//44 57//44 59//44 61//44 63//44 65//44 67//44 69//44 71//44 73//44 75//44 77//44 79//44
