# Blender v3.1.2 OBJ File: 'GripperLink.blend'
# www.blender.org
o Cube
v -0.006000 -0.009000 0.024248
v -0.006000 0.009000 0.024248
v 0.006000 0.009000 0.024248
v 0.006000 -0.009000 0.024248
v -0.006000 -0.009000 0.013720
v 0.006000 -0.009000 0.013720
v 0.006000 0.009000 0.013720
v -0.006000 0.009000 0.013720
v 0.006000 0.019000 0.000018
v 0.005542 0.019000 -0.002285
v 0.004237 0.019000 -0.004237
v 0.002285 0.019000 -0.005542
v 0.006000 -0.019000 0.000018
v 0.002285 -0.019000 -0.005542
v 0.004237 -0.019000 -0.004237
v 0.005542 -0.019000 -0.002285
v 0.000000 0.019000 0.066000
v 0.006000 0.019000 0.059982
v 0.002285 0.019000 0.065542
v 0.004237 0.019000 0.064237
v 0.005542 0.019000 0.062285
v 0.006000 -0.019000 0.059982
v -0.000000 -0.019000 0.066000
v 0.005542 -0.019000 0.062285
v 0.004237 -0.019000 0.064237
v 0.002285 -0.019000 0.065542
v -0.000000 0.019000 -0.006000
v -0.006000 0.019000 0.000018
v -0.002285 0.019000 -0.005542
v -0.004237 0.019000 -0.004237
v -0.005542 0.019000 -0.002285
v -0.006000 -0.019000 0.000018
v 0.000000 -0.019000 -0.006000
v -0.005542 -0.019000 -0.002285
v -0.004237 -0.019000 -0.004237
v -0.002285 -0.019000 -0.005542
v -0.006000 0.019000 0.059982
v -0.005542 0.019000 0.062285
v -0.004237 0.019000 0.064237
v -0.002285 0.019000 0.065542
v -0.006000 -0.019000 0.059982
v -0.002285 -0.019000 0.065542
v -0.004237 -0.019000 0.064237
v -0.005542 -0.019000 0.062285
v 0.006000 0.009000 0.000018
v 0.002285 0.009000 -0.005542
v 0.004237 0.009000 -0.004237
v 0.005542 0.009000 -0.002285
v -0.006000 0.009000 0.059982
v -0.002285 0.009000 0.065542
v -0.004237 0.009000 0.064237
v -0.005542 0.009000 0.062285
v 0.006000 0.009000 0.059982
v -0.000000 0.009000 0.066000
v 0.005542 0.009000 0.062285
v 0.004237 0.009000 0.064237
v 0.002285 0.009000 0.065542
v -0.006000 0.009000 0.000018
v 0.000000 0.009000 -0.006000
v -0.005542 0.009000 -0.002285
v -0.004237 0.009000 -0.004237
v -0.002285 0.009000 -0.005542
v 0.006000 -0.009000 0.000018
v 0.005542 -0.009000 -0.002285
v 0.004237 -0.009000 -0.004237
v 0.002285 -0.009000 -0.005542
v 0.000000 -0.009000 0.066000
v 0.006000 -0.009000 0.059982
v 0.002285 -0.009000 0.065542
v 0.004237 -0.009000 0.064237
v 0.005542 -0.009000 0.062285
v -0.000000 -0.009000 -0.006000
v -0.006000 -0.009000 0.000018
v -0.002285 -0.009000 -0.005542
v -0.004237 -0.009000 -0.004237
v -0.005542 -0.009000 -0.002285
v -0.006000 -0.009000 0.059982
v -0.005542 -0.009000 0.062285
v -0.004237 -0.009000 0.064237
v -0.002285 -0.009000 0.065542
vn -1.0000 0.0000 0.0000
vn 0.0000 1.0000 -0.0000
vn 0.0000 -1.0000 0.0000
vn 1.0000 0.0000 0.0000
vn 0.0000 0.0000 1.0000
vn 0.0000 0.0000 -1.0000
vn 0.9808 0.0000 -0.1951
vn 0.8315 0.0000 -0.5556
vn 0.5556 0.0000 -0.8315
vn -0.1966 0.0000 0.9805
vn 0.1966 0.0000 -0.9805
vn -0.5556 0.0000 0.8315
vn -0.8315 0.0000 0.5556
vn -0.9808 0.0000 0.1951
vn 0.1966 -0.0000 0.9805
vn 0.5556 0.0000 0.8315
vn 0.8315 0.0000 0.5556
vn 0.9808 0.0000 0.1951
vn -0.1966 -0.0000 -0.9805
vn -0.5556 -0.0000 -0.8315
vn -0.8315 0.0000 -0.5556
vn -0.9808 0.0000 -0.1951
s off
f 5//1 73//1 32//1
f 20//2 18//2 39//2
f 50//3 52//3 55//3
f 3//4 6//4 7//4
f 8//1 2//1 28//1
f 46//3 48//3 60//3
f 43//3 41//3 25//3
f 4//4 68//4 22//4
f 3//5 1//5 4//5
f 74//2 76//2 64//2
f 69//2 71//2 78//2
f 8//6 6//6 5//6
f 2//1 5//1 1//1
f 13//7 64//7 63//7
f 16//8 65//8 64//8
f 15//9 66//9 65//9
f 17//10 50//10 54//10
f 27//11 46//11 59//11
f 40//12 51//12 50//12
f 39//13 52//13 51//13
f 38//14 49//14 52//14
f 23//15 69//15 67//15
f 26//16 70//16 69//16
f 25//17 71//17 70//17
f 24//18 68//18 71//18
f 33//19 74//19 72//19
f 36//20 75//20 74//20
f 35//21 76//21 75//21
f 34//22 73//22 76//22
f 45//7 10//7 9//7
f 48//8 11//8 10//8
f 47//9 12//9 11//9
f 67//10 42//10 23//10
f 54//15 19//15 17//15
f 57//16 20//16 19//16
f 56//17 21//17 20//17
f 55//18 18//18 21//18
f 59//19 29//19 27//19
f 62//20 30//20 29//20
f 61//21 31//21 30//21
f 60//22 28//22 31//22
f 80//12 43//12 42//12
f 79//13 44//13 43//13
f 78//14 41//14 44//14
f 3//4 7//4 9//4
f 72//11 14//11 33//11
f 32//1 41//1 1//1
f 41//1 77//1 1//1
f 1//1 5//1 32//1
f 18//2 9//2 28//2
f 9//2 10//2 31//2
f 10//2 11//2 12//2
f 12//2 27//2 29//2
f 29//2 30//2 12//2
f 30//2 31//2 12//2
f 31//2 28//2 9//2
f 28//2 37//2 18//2
f 37//2 38//2 39//2
f 39//2 40//2 19//2
f 40//2 17//2 19//2
f 19//2 20//2 39//2
f 20//2 21//2 18//2
f 10//2 12//2 31//2
f 37//2 39//2 18//2
f 3//3 53//3 2//3
f 53//3 55//3 49//3
f 2//3 53//3 49//3
f 55//3 56//3 50//3
f 56//3 57//3 50//3
f 57//3 54//3 50//3
f 50//3 51//3 52//3
f 52//3 49//3 55//3
f 3//4 4//4 6//4
f 2//1 49//1 37//1
f 37//1 28//1 2//1
f 28//1 58//1 8//1
f 8//3 58//3 7//3
f 58//3 60//3 45//3
f 7//3 58//3 45//3
f 60//3 61//3 46//3
f 61//3 62//3 46//3
f 62//3 59//3 46//3
f 46//3 47//3 48//3
f 48//3 45//3 60//3
f 41//3 32//3 13//3
f 32//3 34//3 16//3
f 34//3 35//3 36//3
f 36//3 33//3 14//3
f 14//3 15//3 36//3
f 15//3 16//3 36//3
f 16//3 13//3 32//3
f 13//3 22//3 41//3
f 22//3 24//3 25//3
f 25//3 26//3 42//3
f 26//3 23//3 42//3
f 42//3 43//3 25//3
f 43//3 44//3 41//3
f 34//3 36//3 16//3
f 22//3 25//3 41//3
f 22//4 13//4 4//4
f 13//4 63//4 6//4
f 6//4 4//4 13//4
f 3//5 2//5 1//5
f 6//2 63//2 5//2
f 63//2 64//2 73//2
f 5//2 63//2 73//2
f 64//2 65//2 74//2
f 65//2 66//2 74//2
f 66//2 72//2 74//2
f 74//2 75//2 76//2
f 76//2 73//2 64//2
f 1//2 77//2 4//2
f 77//2 78//2 68//2
f 4//2 77//2 68//2
f 78//2 79//2 69//2
f 79//2 80//2 69//2
f 80//2 67//2 69//2
f 69//2 70//2 71//2
f 71//2 68//2 78//2
f 8//6 7//6 6//6
f 2//1 8//1 5//1
f 13//7 16//7 64//7
f 16//8 15//8 65//8
f 15//9 14//9 66//9
f 17//10 40//10 50//10
f 27//11 12//11 46//11
f 40//12 39//12 51//12
f 39//13 38//13 52//13
f 38//14 37//14 49//14
f 23//15 26//15 69//15
f 26//16 25//16 70//16
f 25//17 24//17 71//17
f 24//18 22//18 68//18
f 33//19 36//19 74//19
f 36//20 35//20 75//20
f 35//21 34//21 76//21
f 34//22 32//22 73//22
f 45//7 48//7 10//7
f 48//8 47//8 11//8
f 47//9 46//9 12//9
f 67//10 80//10 42//10
f 54//15 57//15 19//15
f 57//16 56//16 20//16
f 56//17 55//17 21//17
f 55//18 53//18 18//18
f 59//19 62//19 29//19
f 62//20 61//20 30//20
f 61//21 60//21 31//21
f 60//22 58//22 28//22
f 80//12 79//12 43//12
f 79//13 78//13 44//13
f 78//14 77//14 41//14
f 7//4 45//4 9//4
f 9//4 18//4 3//4
f 18//4 53//4 3//4
f 72//11 66//11 14//11
