# Blender v3.1.2 OBJ File: 'Axis2.blend'
# www.blender.org
o Cube
v 0.019850 0.019494 -0.019782
v 0.065575 -0.030113 0.109579
v -0.019850 0.019494 -0.019782
v -0.065575 -0.030113 0.109579
v 0.024075 -0.029861 0.087130
v -0.024075 -0.029861 0.087130
v -0.024075 -0.030113 0.109579
v 0.024075 -0.030113 0.109579
v -0.024075 0.011034 0.110041
v -0.065575 0.011034 0.110041
v 0.065575 0.011034 0.110041
v 0.024075 0.011286 0.087592
v 0.024075 0.011034 0.110041
v 0.065575 -0.029990 0.098579
v 0.019850 -0.029328 0.039673
v -0.019850 -0.029328 0.039673
v -0.065575 -0.029990 0.098579
v -0.019850 0.011999 0.024204
v -0.019850 0.019100 0.015220
v -0.065575 0.011158 0.099042
v -0.019850 0.011820 0.040135
v 0.019850 0.019101 0.015174
v -0.019850 0.011999 0.024204
v 0.019850 0.011999 0.024159
v 0.019850 0.011999 0.024159
v 0.019850 0.011820 0.040135
v 0.019850 0.011820 0.040135
v 0.019850 0.011820 0.040135
v 0.065575 0.011158 0.099042
v -0.024075 0.011286 0.087592
v 0.019850 -0.029066 0.016369
v 0.019850 -0.015054 -0.020170
v -0.019850 -0.015054 -0.020170
v -0.019850 -0.029066 0.016369
vn 0.0000 -0.0112 0.9999
vn -1.0000 0.0000 0.0000
vn 1.0000 -0.0000 0.0000
vn -0.0000 0.0112 -0.9999
vn 0.7900 0.0069 -0.6131
vn 0.0000 -0.9999 -0.0112
vn -0.7900 0.0069 -0.6131
vn 0.0000 0.9999 0.0112
vn 0.0000 0.0000 1.0000
vn -0.0000 -0.9337 -0.3581
vn 0.0007 0.7845 0.6201
s off
f 12//1 6//1 5//1
f 9//1 4//1 7//1
f 13//2 5//2 8//2
f 11//3 14//3 29//3
f 11//1 8//1 2//1
f 7//3 30//3 9//3
f 1//4 33//4 3//4
f 10//2 17//2 4//2
f 21//2 18//2 33//2
f 14//5 26//5 29//5
f 15//6 6//6 16//6
f 20//7 16//7 17//7
f 3//8 22//8 1//8
f 28//8 12//8 29//8
f 19//9 18//9 23//9
f 31//10 33//10 32//10
f 32//3 1//3 25//3
f 12//1 30//1 6//1
f 9//1 10//1 4//1
f 13//2 12//2 5//2
f 11//3 2//3 14//3
f 11//1 13//1 8//1
f 7//3 6//3 30//3
f 1//4 32//4 33//4
f 10//2 20//2 17//2
f 19//2 3//2 18//2
f 3//2 33//2 18//2
f 33//2 34//2 16//2
f 16//2 21//2 33//2
f 14//5 15//5 26//5
f 15//6 14//6 5//6
f 14//6 2//6 8//6
f 5//6 14//6 8//6
f 6//6 7//6 17//6
f 7//6 4//6 17//6
f 15//6 5//6 6//6
f 34//6 31//6 15//6
f 6//6 17//6 16//6
f 16//6 34//6 15//6
f 20//7 21//7 16//7
f 3//8 19//8 22//8
f 20//8 10//8 9//8
f 20//8 9//8 30//8
f 23//9 18//9 21//9
f 21//8 20//8 30//8
f 12//8 13//8 29//8
f 13//8 11//8 29//8
f 21//8 30//8 12//8
f 24//8 23//8 28//8
f 23//8 21//8 28//8
f 29//9 26//9 28//9
f 21//8 12//8 28//8
f 18//9 24//9 23//9
f 23//11 25//11 19//11
f 25//11 22//11 19//11
f 31//10 34//10 33//10
f 1//3 22//3 25//3
f 25//3 26//3 32//3
f 26//3 15//3 32//3
f 15//3 31//3 32//3
o Cube.001
v -0.065575 -0.028969 0.548169
v -0.059152 -0.035391 0.548097
v -0.059152 0.006106 0.548563
v -0.065575 -0.000316 0.548491
v -0.059152 -0.030463 0.109575
v -0.065575 -0.024041 0.109647
v -0.065575 0.004612 0.109969
v -0.059152 0.011034 0.110041
v -0.030498 -0.035391 0.548097
v -0.024075 -0.028969 0.548169
v -0.024075 -0.000316 0.548491
v -0.030498 0.006106 0.548563
v -0.024075 -0.024041 0.109647
v -0.030498 -0.030463 0.109575
v -0.030498 0.011034 0.110041
v -0.024075 0.004612 0.109969
vn 0.0000 -0.0112 0.9999
vn 1.0000 -0.0000 0.0000
vn 0.0000 0.9999 0.0112
vn -1.0000 0.0000 0.0000
vn 0.0000 0.0112 -0.9999
vn -0.7071 -0.7071 -0.0079
vn -0.7071 0.7071 0.0079
vn 0.7071 -0.7071 -0.0079
vn 0.7071 0.7071 0.0079
vn 0.0000 -0.9999 -0.0112
s off
f 46//12 38//12 36//12
f 50//13 44//13 47//13
f 42//14 46//14 49//14
f 38//15 40//15 35//15
f 42//16 50//16 48//16
f 36//17 40//17 39//17
f 42//18 38//18 37//18
f 48//19 44//19 43//19
f 46//20 50//20 49//20
f 48//21 36//21 39//21
f 36//12 43//12 44//12
f 44//12 45//12 46//12
f 46//12 37//12 38//12
f 38//12 35//12 36//12
f 36//12 44//12 46//12
f 50//13 45//13 44//13
f 42//14 37//14 46//14
f 38//15 41//15 40//15
f 48//16 39//16 40//16
f 40//16 41//16 42//16
f 42//16 49//16 50//16
f 50//16 47//16 48//16
f 48//16 40//16 42//16
f 36//17 35//17 40//17
f 42//18 41//18 38//18
f 48//19 47//19 44//19
f 46//20 45//20 50//20
f 48//21 43//21 36//21
o Cube.002
v 0.024075 -0.028969 0.548169
v 0.030498 -0.035391 0.548097
v 0.030498 0.006106 0.548563
v 0.024075 -0.000316 0.548491
v 0.030498 -0.030463 0.109575
v 0.024075 -0.024041 0.109647
v 0.024075 0.004612 0.109969
v 0.030498 0.011034 0.110041
v 0.059152 -0.035391 0.548097
v 0.065575 -0.028969 0.548169
v 0.065575 -0.000316 0.548491
v 0.059152 0.006106 0.548563
v 0.065575 -0.024041 0.109647
v 0.059152 -0.030463 0.109575
v 0.059152 0.011034 0.110041
v 0.065575 0.004612 0.109969
vn 0.0000 -0.0112 0.9999
vn 1.0000 0.0000 0.0000
vn 0.0000 0.9999 0.0112
vn -1.0000 0.0000 0.0000
vn 0.0000 0.0112 -0.9999
vn -0.7071 -0.7071 -0.0079
vn -0.7071 0.7071 0.0079
vn 0.7071 -0.7071 -0.0079
vn 0.7071 0.7071 0.0079
vn 0.0000 -0.9999 -0.0112
s off
f 62//22 54//22 52//22
f 66//23 60//23 63//23
f 58//24 62//24 65//24
f 54//25 56//25 51//25
f 58//26 66//26 64//26
f 52//27 56//27 55//27
f 58//28 54//28 53//28
f 64//29 60//29 59//29
f 62//30 66//30 65//30
f 64//31 52//31 55//31
f 52//22 59//22 60//22
f 60//22 61//22 62//22
f 62//22 53//22 54//22
f 54//22 51//22 52//22
f 52//22 60//22 62//22
f 66//23 61//23 60//23
f 58//24 53//24 62//24
f 54//25 57//25 56//25
f 64//26 55//26 56//26
f 56//26 57//26 58//26
f 58//26 65//26 66//26
f 66//26 63//26 64//26
f 64//26 56//26 58//26
f 52//27 51//27 56//27
f 58//28 57//28 54//28
f 64//29 63//29 60//29
f 62//30 61//30 66//30
f 64//31 59//31 52//31
o Cube.003
v -0.057500 0.006199 0.540304
v -0.057500 0.012549 0.540375
v -0.057500 0.006648 0.500307
v -0.057500 0.012998 0.500378
v 0.057500 0.006199 0.540304
v 0.057500 0.012549 0.540375
v 0.057500 0.006648 0.500307
v 0.057500 0.012998 0.500378
vn -1.0000 0.0000 0.0000
vn 0.0000 0.0112 -0.9999
vn 1.0000 0.0000 0.0000
vn 0.0000 -0.0112 0.9999
vn 0.0000 -0.9999 -0.0112
vn 0.0000 0.9999 0.0112
s off
f 68//32 69//32 67//32
f 70//33 73//33 69//33
f 74//34 71//34 73//34
f 72//35 67//35 71//35
f 73//36 67//36 69//36
f 70//37 72//37 74//37
f 68//32 70//32 69//32
f 70//33 74//33 73//33
f 74//34 72//34 71//34
f 72//35 68//35 67//35
f 73//36 71//36 67//36
f 70//37 68//37 72//37
o Cylinder
v -0.070000 -0.000047 0.555005
v 0.070000 -0.000047 0.555005
v -0.070000 -0.001023 0.555090
v 0.070000 -0.001023 0.555090
v -0.070000 -0.001964 0.555364
v 0.070000 -0.001964 0.555364
v -0.070000 -0.002834 0.555816
v 0.070000 -0.002834 0.555816
v -0.070000 -0.003598 0.556429
v 0.070000 -0.003598 0.556429
v -0.070000 -0.004229 0.557180
v 0.070000 -0.004229 0.557180
v -0.070000 -0.004700 0.558039
v 0.070000 -0.004700 0.558039
v -0.070000 -0.004995 0.558974
v 0.070000 -0.004995 0.558974
v -0.070000 -0.005102 0.559948
v 0.070000 -0.005102 0.559948
v -0.070000 -0.005017 0.560925
v 0.070000 -0.005017 0.560925
v -0.070000 -0.004743 0.561866
v 0.070000 -0.004743 0.561866
v -0.070000 -0.004291 0.562735
v 0.070000 -0.004291 0.562735
v -0.070000 -0.003678 0.563500
v 0.070000 -0.003678 0.563500
v -0.070000 -0.002927 0.564130
v 0.070000 -0.002927 0.564130
v -0.070000 -0.002068 0.564602
v 0.070000 -0.002068 0.564602
v -0.070000 -0.001133 0.564897
v 0.070000 -0.001133 0.564897
v -0.070000 -0.000159 0.565004
v 0.070000 -0.000159 0.565004
v -0.070000 0.000817 0.564919
v 0.070000 0.000817 0.564919
v -0.070000 0.001759 0.564645
v 0.070000 0.001759 0.564645
v -0.070000 0.002628 0.564193
v 0.070000 0.002628 0.564193
v -0.070000 0.003393 0.563579
v 0.070000 0.003393 0.563579
v -0.070000 0.004023 0.562829
v 0.070000 0.004023 0.562829
v -0.070000 0.004495 0.561969
v 0.070000 0.004495 0.561969
v -0.070000 0.004790 0.561035
v 0.070000 0.004790 0.561035
v -0.070000 0.004897 0.560060
v 0.070000 0.004897 0.560060
v -0.070000 0.004812 0.559084
v 0.070000 0.004812 0.559084
v -0.070000 0.004538 0.558143
v 0.070000 0.004538 0.558143
v -0.070000 0.004086 0.557273
v 0.070000 0.004086 0.557273
v -0.070000 0.003472 0.556509
v 0.070000 0.003472 0.556509
v -0.070000 0.002722 0.555878
v 0.070000 0.002722 0.555878
v -0.070000 0.001862 0.555407
v 0.070000 0.001862 0.555407
v -0.070000 0.000928 0.555112
v 0.070000 0.000928 0.555112
vn -0.0000 -0.0868 -0.9962
vn 0.0000 -0.2795 -0.9601
vn 0.0000 -0.4614 -0.8872
vn 0.0000 -0.6257 -0.7801
vn 0.0000 -0.7658 -0.6430
vn 0.0000 -0.8766 -0.4813
vn 0.0000 -0.9536 -0.3010
vn 0.0000 -0.9940 -0.1092
vn -0.0000 -0.9962 0.0868
vn 0.0000 -0.9601 0.2795
vn 0.0000 -0.8872 0.4615
vn 0.0000 -0.7801 0.6257
vn 0.0000 -0.6431 0.7658
vn 0.0000 -0.4813 0.8766
vn 0.0000 -0.3010 0.9536
vn 0.0000 -0.1092 0.9940
vn -0.0000 0.0868 0.9962
vn 0.0000 0.2795 0.9601
vn 0.0000 0.4614 0.8872
vn -0.0000 0.6257 0.7801
vn 0.0000 0.7658 0.6430
vn 0.0000 0.8766 0.4813
vn 0.0000 0.9536 0.3010
vn 0.0000 0.9940 0.1092
vn 0.0000 0.9962 -0.0868
vn 0.0000 0.9601 -0.2795
vn 0.0000 0.8872 -0.4615
vn 0.0000 0.7801 -0.6257
vn 0.0000 0.6431 -0.7658
vn 0.0000 0.4813 -0.8766
vn 1.0000 -0.0000 0.0000
vn 0.0000 0.3010 -0.9536
vn 0.0000 0.1092 -0.9940
vn -1.0000 0.0000 0.0000
s off
f 76//38 77//38 75//38
f 78//39 79//39 77//39
f 80//40 81//40 79//40
f 82//41 83//41 81//41
f 84//42 85//42 83//42
f 86//43 87//43 85//43
f 88//44 89//44 87//44
f 90//45 91//45 89//45
f 92//46 93//46 91//46
f 94//47 95//47 93//47
f 96//48 97//48 95//48
f 98//49 99//49 97//49
f 100//50 101//50 99//50
f 102//51 103//51 101//51
f 104//52 105//52 103//52
f 106//53 107//53 105//53
f 108//54 109//54 107//54
f 110//55 111//55 109//55
f 112//56 113//56 111//56
f 114//57 115//57 113//57
f 116//58 117//58 115//58
f 118//59 119//59 117//59
f 120//60 121//60 119//60
f 122//61 123//61 121//61
f 124//62 125//62 123//62
f 126//63 127//63 125//63
f 128//64 129//64 127//64
f 130//65 131//65 129//65
f 132//66 133//66 131//66
f 134//67 135//67 133//67
f 128//68 112//68 96//68
f 136//69 137//69 135//69
f 138//70 75//70 137//70
f 89//71 105//71 121//71
f 76//38 78//38 77//38
f 78//39 80//39 79//39
f 80//40 82//40 81//40
f 82//41 84//41 83//41
f 84//42 86//42 85//42
f 86//43 88//43 87//43
f 88//44 90//44 89//44
f 90//45 92//45 91//45
f 92//46 94//46 93//46
f 94//47 96//47 95//47
f 96//48 98//48 97//48
f 98//49 100//49 99//49
f 100//50 102//50 101//50
f 102//51 104//51 103//51
f 104//52 106//52 105//52
f 106//53 108//53 107//53
f 108//54 110//54 109//54
f 110//55 112//55 111//55
f 112//56 114//56 113//56
f 114//57 116//57 115//57
f 116//58 118//58 117//58
f 118//59 120//59 119//59
f 120//60 122//60 121//60
f 122//61 124//61 123//61
f 124//62 126//62 125//62
f 126//63 128//63 127//63
f 128//64 130//64 129//64
f 130//65 132//65 131//65
f 132//66 134//66 133//66
f 134//67 136//67 135//67
f 80//68 78//68 136//68
f 78//68 76//68 136//68
f 76//68 138//68 136//68
f 136//68 134//68 132//68
f 132//68 130//68 136//68
f 130//68 128//68 136//68
f 128//68 126//68 124//68
f 124//68 122//68 120//68
f 120//68 118//68 116//68
f 116//68 114//68 112//68
f 112//68 110//68 108//68
f 108//68 106//68 104//68
f 104//68 102//68 100//68
f 100//68 98//68 96//68
f 96//68 94//68 92//68
f 92//68 90//68 88//68
f 88//68 86//68 84//68
f 84//68 82//68 80//68
f 128//68 124//68 112//68
f 124//68 120//68 112//68
f 120//68 116//68 112//68
f 112//68 108//68 104//68
f 104//68 100//68 112//68
f 100//68 96//68 112//68
f 96//68 92//68 80//68
f 92//68 88//68 80//68
f 88//68 84//68 80//68
f 80//68 136//68 128//68
f 80//68 128//68 96//68
f 136//69 138//69 137//69
f 138//70 76//70 75//70
f 137//71 75//71 77//71
f 77//71 79//71 81//71
f 81//71 83//71 85//71
f 85//71 87//71 89//71
f 89//71 91//71 93//71
f 93//71 95//71 97//71
f 97//71 99//71 101//71
f 101//71 103//71 105//71
f 105//71 107//71 109//71
f 109//71 111//71 113//71
f 113//71 115//71 117//71
f 117//71 119//71 121//71
f 121//71 123//71 125//71
f 125//71 127//71 121//71
f 127//71 129//71 121//71
f 129//71 131//71 133//71
f 133//71 135//71 129//71
f 135//71 137//71 129//71
f 137//71 77//71 89//71
f 77//71 81//71 89//71
f 81//71 85//71 89//71
f 89//71 93//71 97//71
f 97//71 101//71 89//71
f 101//71 105//71 89//71
f 105//71 109//71 121//71
f 109//71 113//71 121//71
f 113//71 117//71 121//71
f 121//71 129//71 137//71
f 137//71 89//71 121//71
o Cube.004
v 0.024075 -0.035391 0.548097
v 0.065575 -0.035391 0.548097
v 0.024075 0.004822 0.570775
v 0.024075 0.010356 0.565365
v 0.065575 0.010356 0.565365
v 0.065575 0.004822 0.570775
v 0.024075 0.010494 0.553051
v 0.024075 0.006106 0.548563
v 0.065575 0.006106 0.548563
v 0.065575 0.010494 0.553051
v 0.024075 -0.035458 0.554012
v 0.024075 -0.007213 0.570640
v 0.065575 -0.007213 0.570640
v 0.065575 -0.035458 0.554012
vn 0.0000 0.9999 0.0112
vn 0.0000 0.0112 -0.9999
vn 0.0000 -0.0112 0.9999
vn 0.0000 0.6991 0.7150
vn 1.0000 0.0000 0.0000
vn 0.0000 0.7150 -0.6991
vn 0.0000 -0.9999 -0.0112
vn 0.0000 -0.5073 0.8618
vn -1.0000 0.0000 0.0000
s off
f 145//72 143//72 148//72
f 146//73 140//73 139//73
f 144//74 150//74 151//74
f 142//75 144//75 143//75
f 144//76 151//76 147//76
f 148//77 146//77 145//77
f 140//78 149//78 139//78
f 152//79 150//79 149//79
f 146//80 139//80 150//80
f 145//72 142//72 143//72
f 146//73 147//73 140//73
f 144//74 141//74 150//74
f 142//75 141//75 144//75
f 152//76 140//76 151//76
f 140//76 147//76 151//76
f 147//76 148//76 143//76
f 143//76 144//76 147//76
f 148//77 147//77 146//77
f 140//78 152//78 149//78
f 152//79 151//79 150//79
f 139//80 149//80 150//80
f 150//80 141//80 146//80
f 141//80 142//80 146//80
f 142//80 145//80 146//80
o Cube.005
v -0.065575 -0.035391 0.548097
v -0.024075 -0.035391 0.548097
v -0.065575 0.004822 0.570775
v -0.065575 0.010356 0.565365
v -0.024075 0.010356 0.565365
v -0.024075 0.004822 0.570775
v -0.065575 0.010494 0.553051
v -0.065575 0.006106 0.548563
v -0.024075 0.006106 0.548563
v -0.024075 0.010494 0.553051
v -0.065575 -0.035458 0.554012
v -0.065575 -0.007213 0.570640
v -0.024075 -0.007213 0.570640
v -0.024075 -0.035458 0.554012
vn 0.0000 0.9999 0.0112
vn 0.0000 0.0112 -0.9999
vn 0.0000 -0.0112 0.9999
vn 0.0000 0.6991 0.7150
vn 1.0000 0.0000 0.0000
vn 0.0000 0.7150 -0.6991
vn 0.0000 -0.9999 -0.0112
vn 0.0000 -0.5073 0.8618
vn -1.0000 0.0000 0.0000
s off
f 159//81 157//81 162//81
f 160//82 154//82 153//82
f 158//83 164//83 165//83
f 156//84 158//84 157//84
f 158//85 165//85 161//85
f 162//86 160//86 159//86
f 154//87 163//87 153//87
f 166//88 164//88 163//88
f 160//89 153//89 164//89
f 159//81 156//81 157//81
f 160//82 161//82 154//82
f 158//83 155//83 164//83
f 156//84 155//84 158//84
f 166//85 154//85 165//85
f 154//85 161//85 165//85
f 161//85 162//85 157//85
f 157//85 158//85 161//85
f 162//86 161//86 160//86
f 154//87 166//87 163//87
f 166//88 165//88 164//88
f 153//89 163//89 164//89
f 164//89 155//89 160//89
f 155//89 156//89 160//89
f 156//89 159//89 160//89
